# xmcd
#
# Track frame offsets:
#	150
#	9625
#	24352
#	34315
#	51870
#	62365
#	76070
#	87832
#	102202
#	114782
#	125635
#	136142
#	145582
#	159922
#	171165
#	176890
#	187292
#	197387
#
# Disc length: 2767 seconds
#
# Revision: 1
# Processed by: cddbd v1.5.2PL0 Copyright (c) Steve Scherf et al.
# Submitted via: audiograbber 1.83.01
#
DISCID=e20acd12
DTITLE=Various Artist - The Country Box [CD 3)
DYEAR=1996
DGENRE=Country
TTITLE0=Merle Travis - 16 Tons
TTITLE1=The Kingston Trio - Tom Dooley
TTITLE2=Johnny Cash - Rock Iland line
TTITLE3=Skeeter Davis - Always on my mind
TTITLE4=Jimmie Rodgers - Kisses Sweeter than wine
TTITLE5=B.J.Thomas - I'm so lonesome for the roses
TTITLE6=Dolly Parton - Letter to heaven
TTITLE7=George Jones - A goog year for the roses
TTITLE8=Billie Jo Spears - '57 Chevrolet
TTITLE9=Sammi Smith - Help me make it through the night
TTITLE10=Carl Belew - Am I that easy to forget
TTITLE11=Del Wood - Are you from Dixie
TTITLE12=Glenn Barber - Another Man's woman
TTITLE13=Stoney Cooper and Wilma Lee - Big midnight spezial
TTITLE14=Buck Owens - Blue love
TTITLE15=Jimmy C. Newman - D.J. for a day
TTITLE16=Anne Murray - For Baby
TTITLE17=Willie Nelson - Pride wins again
EXTD=
EXTT0=
EXTT1=
EXTT2=
EXTT3=
EXTT4=
EXTT5=
EXTT6=
EXTT7=
EXTT8=
EXTT9=
EXTT10=
EXTT11=
EXTT12=
EXTT13=
EXTT14=
EXTT15=
EXTT16=
EXTT17=
PLAYORDER=
